<?xml version="1.0" encoding="UTF-8"?>
<svg width="28px" height="38px" viewBox="0 0 28 38" version="1.1" xmlns="http://www.w3.org/2000/svg" xmlns:xlink="http://www.w3.org/1999/xlink">
    <!-- Generator: Sketch 55.2 (78181) - https://sketchapp.com -->
    <title></title>
    <desc>Created with Sketch.</desc>
    <g id="Symbols" stroke="none" stroke-width="1" fill="none" fill-rule="evenodd">
        <g id="Unknown-File" transform="translate(0.000000, -12.000000)" fill="#000000" fill-rule="nonzero">
            <path d="M26.7310192,19.6998932 C27.3814083,20.3502823 27.7499338,21.2391333 27.7499338,22.1569186 L27.7499338,46.1562472 C27.7499338,48.0712817 26.1962266,49.624989 24.2811921,49.624989 L3.46874173,49.624989 C1.55370723,49.624989 0,48.0712817 0,46.1562472 L0,16.0938189 C0,14.1787844 1.55370723,12.6250772 3.46874173,12.6178789 L18.2180924,12.6178789 C19.1358778,12.6178789 20.0175304,12.9864045 20.6679195,13.6367935 L26.7310192,19.6998932 Z M23.9993286,21.8750551 L18.4999559,16.3756824 L18.4999559,21.8750551 L23.9993286,21.8750551 Z M3.46874173,46.1562472 L24.2811921,46.1562472 L24.2811921,25.3437969 L16.765585,25.3437969 C15.8044686,25.3437969 15.0312142,24.5705424 15.0312142,23.609426 L15.0312142,16.0938189 L3.46874173,16.0938189 L3.46874173,46.1562472 Z" id=""></path>
        </g>
    </g>
</svg>