<?xml version="1.0" encoding="UTF-8" standalone="yes"?>
<svg xmlns="http://www.w3.org/2000/svg" viewBox="0 0 26 26" width="208" height="208" fill="#000000">
  <path d="M 15 0 L 0 2.875 L 0 23.125 L 15 26 Z M 16 3 L 16 5.96875 L 19.03125 5.96875 L 19.03125 8 L 16 8 L 16 10 L 19 10 L 19 12 L 16 12 L 16 14 L 19 14 L 19 16 L 16 16 L 16 18 L 19 18 L 19 20 L 16 20 L 16 23 L 25.15625 23 C 25.617188 23 26 22.605469 26 22.125 L 26 3.875 C 26 3.394531 25.617188 3 25.15625 3 Z M 20 6 L 24 6 L 24 8 L 20 8 Z M 3.09375 7.9375 L 5.84375 7.9375 L 7.3125 11 C 7.425781 11.238281 7.535156 11.515625 7.625 11.84375 C 7.683594 11.644531 7.8125 11.359375 7.96875 10.96875 L 9.5625 7.9375 L 12.09375 7.9375 L 9.0625 12.96875 L 12.1875 18.09375 L 9.5 18.09375 L 7.75 14.78125 C 7.683594 14.660156 7.601563 14.421875 7.53125 14.09375 L 7.5 14.09375 C 7.46875 14.25 7.402344 14.496094 7.28125 14.8125 L 5.53125 18.09375 L 2.8125 18.09375 L 6.03125 13.03125 Z M 20 10 L 24 10 L 24 12 L 20 12 Z M 20 14 L 24 14 L 24 16 L 20 16 Z M 20 18 L 24 18 L 24 20 L 20 20 Z"/>
</svg>
