<?xml version="1.0" encoding="UTF-8"?>
<svg width="28px" height="38px" viewBox="0 0 28 38" version="1.1" xmlns="http://www.w3.org/2000/svg" xmlns:xlink="http://www.w3.org/1999/xlink">
    <!-- Generator: Sketch 55.2 (78181) - https://sketchapp.com -->
    <title></title>
    <desc>Created with Sketch.</desc>
    <g id="Symbols" stroke="none" stroke-width="1" fill="none" fill-rule="evenodd">
        <g id="Adobe-PDF" transform="translate(0.000000, -12.000000)" fill="#D03933" fill-rule="nonzero">
            <path d="M26.7310192,19.6998932 C27.3814083,20.3502823 27.7499338,21.2391333 27.7499338,22.1569186 L27.7499338,46.1562472 C27.7499338,48.0712817 26.1962266,49.624989 24.2811921,49.624989 L3.46874173,49.624989 C1.55370723,49.624989 0,48.0712817 0,46.1562472 L0,16.0938189 C0,14.1787844 1.55370723,12.6250772 3.46874173,12.6178789 L18.2180924,12.6178789 C19.1358778,12.6178789 20.0175304,12.9864045 20.6679195,13.6367935 L26.7310192,19.6998932 Z M23.9993286,21.8750551 L18.4999559,16.3756824 L18.4999559,21.8750551 L23.9993286,21.8750551 Z M3.46874173,46.1562472 L24.2811921,46.1562472 L24.2811921,25.3437969 L16.765585,25.3437969 C15.8044686,25.3437969 15.0312142,24.5705424 15.0312142,23.609426 L15.0312142,16.0938189 L3.46874173,16.0938189 L3.46874173,46.1562472 Z M21.5495721,35.7716876 C22.3083594,36.5304748 22.1276957,38.5683747 20.2849267,38.5683747 C19.2154121,38.5683747 17.6183033,38.0769837 16.2525285,37.339862 C14.6915524,37.5999894 12.9283177,38.2576474 11.3095433,38.7923694 C7.6890724,45.0361327 5.57163817,42.1888457 5.81017063,41.0470656 C6.09923244,39.6017566 8.05039966,38.4527782 9.49570871,37.7083876 C10.254496,36.3787456 11.3312089,34.0589822 12.0538634,32.3318803 C11.5191414,30.265046 11.2300796,28.6463422 11.5480052,27.482826 C11.8948653,26.203784 14.3230268,26.0158515 14.6265559,27.9092204 C14.966147,29.0221366 14.5181577,30.7926402 14.2362942,31.9560858 C14.8216161,33.4953258 15.6526688,34.5431749 16.8956487,35.3019621 C18.1530958,35.142964 20.6679195,34.9045021 21.5495721,35.7716876 Z M7.23374359,41.3939257 C7.23374359,41.4445256 8.05759798,41.0543345 9.43064158,38.8646348 C9.00424718,39.2620948 7.60233974,40.4039454 7.23374359,41.3939257 Z M13.1306469,27.6201586 C12.9499832,27.6201586 12.9427144,29.5641275 13.2607106,30.568575 C13.6148395,29.9398514 13.6653689,27.6201586 13.1306469,27.6201586 Z M11.3673416,37.4915912 C12.5163905,37.0508002 13.824367,36.4148783 15.3274743,36.104151 C14.5181577,35.5042913 13.7521015,34.6299075 13.1523124,33.5387274 C12.6681197,34.8177695 12.0683306,36.2703474 11.3673416,37.4915912 Z M20.8775175,37.130264 C21.1376449,36.9568692 20.7185194,36.3787456 18.1819597,36.5666076 C20.5161903,37.5638567 20.8775175,37.130264 20.8775175,37.130264 Z" id=""></path>
        </g>
    </g>
</svg>