<?xml version="1.0" encoding="UTF-8"?>
<svg width="28px" height="38px" viewBox="0 0 28 38" version="1.1" xmlns="http://www.w3.org/2000/svg" xmlns:xlink="http://www.w3.org/1999/xlink">
    <!-- Generator: Sketch 55.2 (78181) - https://sketchapp.com -->
    <title></title>
    <desc>Created with Sketch.</desc>
    <g id="Symbols" stroke="none" stroke-width="1" fill="none" fill-rule="evenodd">
        <g id="MS-PPT" transform="translate(0.000000, -12.000000)" fill="#D98100" fill-rule="nonzero">
            <path d="M26.7310192,19.6998932 C27.3814083,20.3502823 27.7499338,21.2391333 27.7499338,22.1569186 L27.7499338,46.1562472 C27.7499338,48.0712817 26.1962266,49.624989 24.2811921,49.624989 L3.46874173,49.624989 C1.55370723,49.624989 0,48.0712817 0,46.1562472 L0,16.0938189 C0,14.1787844 1.55370723,12.6250772 3.46874173,12.6178789 L18.2180924,12.6178789 C19.1358778,12.6178789 20.0175304,12.9864045 20.6679195,13.6367935 L26.7310192,19.6998932 Z M23.9993286,21.8750551 L18.4999559,16.3756824 L18.4999559,21.8750551 L23.9993286,21.8750551 Z M3.46874173,46.1562472 L24.2811921,46.1562472 L24.2811921,25.3437969 L16.765585,25.3437969 C15.8044686,25.3437969 15.0312142,24.5705424 15.0312142,23.609426 L15.0312142,16.0938189 L3.46874173,16.0938189 L3.46874173,46.1562472 Z M8.67185432,41.8203201 L8.67185432,29.679724 C8.67185432,29.2028003 9.062116,28.8125386 9.53903976,28.8125386 L14.5398232,28.8125386 C17.1919794,28.8125386 19.0780795,30.7637058 19.0780795,33.603724 C19.0780795,38.973033 14.1134288,38.4093766 12.1767288,38.4093766 L12.1767288,41.8203201 C12.1767288,42.2972438 11.7864671,42.6875055 11.3095433,42.6875055 L9.53903976,42.6875055 C9.062116,42.6875055 8.67185432,42.2972438 8.67185432,41.8203201 Z M13.8388342,35.5042913 C14.4097595,35.5042913 14.8433522,35.3308965 15.1468107,34.9840365 C15.761067,34.2757786 15.7538687,32.9244711 15.1540795,32.2523459 C14.8577488,31.9199531 14.4386233,31.7464877 13.8966324,31.7464877 L12.1695305,31.7464877 L12.1695305,35.5042913 L13.8388342,35.5042913 Z" id=""></path>
        </g>
    </g>
</svg>