<?xml version="1.0" encoding="UTF-8" standalone="no"?>
<!-- Generator: Adobe Illustrator 16.0.0, SVG Export Plug-In . SVG Version: 6.00 Build 0)  -->

<svg
   xmlns:dc="http://purl.org/dc/elements/1.1/"
   xmlns:cc="http://creativecommons.org/ns#"
   xmlns:rdf="http://www.w3.org/1999/02/22-rdf-syntax-ns#"
   xmlns:svg="http://www.w3.org/2000/svg"
   xmlns="http://www.w3.org/2000/svg"
   xmlns:sodipodi="http://sodipodi.sourceforge.net/DTD/sodipodi-0.dtd"
   xmlns:inkscape="http://www.inkscape.org/namespaces/inkscape"
   version="1.1"
   id="Layer_1"
   x="0px"
   y="0px"
   width="1852.5265"
   height="1431.5159"
   viewBox="0 0 1852.5265 1431.5159"
   enable-background="new 0 0 612 792"
   xml:space="preserve"
   inkscape:version="0.92.3 (2405546, 2018-03-11)"
   sodipodi:docname="Superman S symbol.svg">
   <defs id="defs13">



</defs>
<polygon
   style="clip-rule:evenodd;fill:#00000;fill-rule:evenodd;stroke-width:0.09486936"
   id="polygon7"
   points="393.252,364.146 361.118,330.593 251.231,330.416 217.504,364.146 302.271,466.223 "
   transform="matrix(10.540811,0,0,10.540811,-2292.6686,-3482.8526)" /><path
   style="clip-rule:evenodd;fill:#ffffff;fill-opacity:1;fill-rule:evenodd;stroke-width:1"
   inkscape:connector-curvature="0"
   id="path9"
   d="m 155.40325,361.91884 236.55688,-244.46251 148.61491,1.8341 c -229.484,110.9526 -285.0868,261.5808 -247.17149,398.82216 z m 523.25643,629.2443 c 183.73689,50.34296 297.1244,58.63856 460.52812,8.4959 L 903.91683,1246.2297 Z M 366.98895,637.87729 558.76849,853.24716 C 587.90328,740.42885 890.88838,809.38685 917.47231,901.77705 1044.468,943.56083 1260.8814,872.46306 1263.9066,806.24568 1263.3163,646.52076 525.76521,779.03983 366.98895,637.87729 Z M 1499.7889,157.00546 1494.645,384.84511 h -298.7477 c 4.0477,-150.63874 -110.4255,-224.61416 -330.81282,-218.54265 -155.18184,3.03576 -304.29216,63.68758 -306.31599,163.77259 0,237.57936 835.54901,-19.20537 902.27241,312.3875 l 242.3122,-280.21694 z m -355.3518,-36.87176 158.4811,0.18973 -34.732,117.95169 c -29.2086,-71.414 -78.3815,-97.48142 -123.7491,-118.14142 z" />
</svg>
