<?xml version="1.0" encoding="UTF-8"?>
<svg width="8px" height="8px" viewBox="0 0 13 12" version="1.1" xmlns="http://www.w3.org/2000/svg" xmlns:xlink="http://www.w3.org/1999/xlink">
    <!-- Generator: Sketch 54.1 (76490) - https://sketchapp.com -->
    <title>mixed_icon</title>
    <desc>Created with Sketch.</desc>
    <g id="v22" stroke="none" stroke-width="1" fill="none" fill-rule="evenodd">
        <g id="23B-Understand-Data--Datasets-Table-View" transform="translate(-569.000000, -303.000000)">
            <g id="dataset-selection" transform="translate(190.000000, 175.000000)">
                <g id="tables" transform="translate(33.000000, 117.000000)">
                    <g id="mixed_icon" transform="translate(346.000000, 11.000000)">
                        <g id="purple" transform="translate(2.000000, 1.000000)" fill="#9187AC">
                            <path d="M1.5,0 C2.16666667,0 3.83333333,0 6.5,0 C7.5,0 8,0.5 8,1.5 C8,3 8,5.5 8,6.5 C8,7.5 7.5,8 6.5,8 C5.5,8 2.5,8 1.5,8 C0.5,8 -0,7.5 0,7 C0,6.5 0,2.5 0,1.5 C0,0.5 0.5,0 1.5,0 Z M2,6 L6,6 L6,2 L2,2 L2,6 Z" id="Combined-Shape"></path>
                        </g>
                        <polygon id="green_delta_triangle" fill="#00C283" points="4 3 0 11 5.32597414 11.0103002 4.45 9.5 2.5 9.5 4 6.5 6.4 11 8 11"></polygon>
                    </g>
                </g>
            </g>
        </g>
    </g>
</svg>
