<?xml version="1.0" encoding="UTF-8"?>
<svg width="28px" height="38px" viewBox="0 0 28 38" version="1.1" xmlns="http://www.w3.org/2000/svg" xmlns:xlink="http://www.w3.org/1999/xlink">
    <!-- Generator: Sketch 55.2 (78181) - https://sketchapp.com -->
    <title></title>
    <desc>Created with Sketch.</desc>
    <g id="Symbols" stroke="none" stroke-width="1" fill="none" fill-rule="evenodd">
        <g id="MS-Word" transform="translate(0.000000, -12.000000)" fill="#2D65C3" fill-rule="nonzero">
            <path d="M26.7310192,19.6998932 C27.3814083,20.3502823 27.7499338,21.2391333 27.7499338,22.1569186 L27.7499338,46.1562472 C27.7499338,48.0712817 26.1962266,49.624989 24.2811921,49.624989 L3.46874173,49.624989 C1.55370723,49.624989 0,48.0712817 0,46.1562472 L0,16.0938189 C0,14.1787844 1.55370723,12.6250772 3.46874173,12.6178789 L18.2180924,12.6178789 C19.1358778,12.6178789 20.0175304,12.9864045 20.6679195,13.6367935 L26.7310192,19.6998932 Z M23.9993286,21.8750551 L18.4999559,16.3756824 L18.4999559,21.8750551 L23.9993286,21.8750551 Z M3.46874173,46.1562472 L24.2811921,46.1562472 L24.2811921,25.3437969 L16.765585,25.3437969 C15.8044686,25.3437969 15.0312142,24.5705424 15.0312142,23.609426 L15.0312142,16.0938189 L3.46874173,16.0938189 L3.46874173,46.1562472 Z M19.3743396,31.1250331 L19.3743396,31.1105659 L20.5161903,31.1105659 C21.0798467,31.1105659 21.4917739,31.6380896 21.3544413,32.1873493 C21.0437139,33.415862 20.3643905,36.0968821 18.8612832,42.0154509 C18.7673522,42.405642 18.4204921,42.6730383 18.0230321,42.6730383 L16.2380613,42.6730383 C15.8406013,42.6730383 15.4937413,42.3984437 15.3997397,42.0154509 C15.016747,40.5050747 14.1134288,36.8846038 14.1062305,36.8556694 L13.8966324,35.6054911 C13.8604997,35.9884839 13.7882343,36.4076094 13.6798361,36.8556694 L12.3863268,42.0154509 C12.2923253,42.405642 11.9454652,42.6730383 11.5480052,42.6730383 L9.72690171,42.6730383 C9.3222434,42.6730383 8.97538334,42.405642 8.88145237,42.0154509 C8.41172692,40.1004164 7.06034884,34.5431749 6.48222522,32.1873493 C6.35216152,31.6453585 6.76401814,31.1178348 7.32774513,31.1178348 L8.54179062,31.1178348 C8.96091614,31.1178348 9.31504508,31.4140949 9.39450885,31.8187532 C9.75583612,33.6759894 10.7242214,38.5973091 10.7747508,38.973033 C10.7964869,39.0958984 10.8036852,39.1970983 10.8108835,39.276562 C10.8687523,38.7345711 10.8398179,38.9369003 12.6031232,31.7826205 C12.7042525,31.3996277 13.0511125,31.1250331 13.4485725,31.1250331 L14.4097595,31.1250331 C14.8144178,31.1250331 15.1612779,31.3996277 15.2552088,31.7898894 C16.9823814,38.9947691 16.9029176,38.6117058 16.9607159,38.9803019 C16.9823814,39.1031673 16.9968486,39.2042966 17.0113158,39.2910292 C17.0546468,38.7057073 17.0401796,38.8719037 18.5288903,31.8115549 C18.6083541,31.4140949 18.962483,31.1250331 19.3743396,31.1250331 Z" id=""></path>
        </g>
    </g>
</svg>