<?xml version="1.0" encoding="UTF-8"?>
<svg width="28px" height="38px" viewBox="0 0 28 38" version="1.1" xmlns="http://www.w3.org/2000/svg" xmlns:xlink="http://www.w3.org/1999/xlink">
    <!-- Generator: Sketch 55.2 (78181) - https://sketchapp.com -->
    <title></title>
    <desc>Created with Sketch.</desc>
    <g id="Symbols" stroke="none" stroke-width="1" fill="none" fill-rule="evenodd">
        <g id="MS-Excel" transform="translate(0.000000, -12.000000)" fill="#587F06" fill-rule="nonzero">
            <path d="M26.7310192,19.6998932 C27.3814083,20.3502823 27.7499338,21.2391333 27.7499338,22.1569186 L27.7499338,46.1562472 C27.7499338,48.0712817 26.1962266,49.624989 24.2811921,49.624989 L3.46874173,49.624989 C1.55370723,49.624989 0,48.0712817 0,46.1562472 L0,16.0938189 C0,14.1787844 1.55370723,12.6250772 3.46874173,12.6178789 L18.2180924,12.6178789 C19.1358778,12.6178789 20.0175304,12.9864045 20.6679195,13.6367935 L26.7310192,19.6998932 Z M23.9993286,21.8750551 L18.4999559,16.3756824 L18.4999559,21.8750551 L23.9993286,21.8750551 Z M3.46874173,46.1562472 L24.2811921,46.1562472 L24.2811921,25.3437969 L16.765585,25.3437969 C15.8044686,25.3437969 15.0312142,24.5705424 15.0312142,23.609426 L15.0312142,16.0938189 L3.46874173,16.0938189 L3.46874173,46.1562472 Z M18.7890177,28.8125386 C19.453874,28.8125386 19.8729995,29.5351931 19.5333378,30.1133167 C18.3770905,32.1006167 16.2380613,35.6705583 16.1874614,35.7500221 L19.5406066,41.3867274 C19.8729995,41.964851 19.4610723,42.6875055 18.7890177,42.6875055 L16.7077868,42.6875055 C16.3897906,42.6875055 16.0935304,42.5140402 15.9417306,42.2322473 C14.3013613,39.2115655 14.9517504,40.2449473 13.8749669,38.0625165 C13.4703086,38.9803019 13.3763071,39.3416292 11.8082032,42.2322473 C11.6564034,42.5140402 11.3673416,42.6875055 11.0494159,42.6875055 L8.96091614,42.6875055 C8.28886154,42.6875055 7.86973603,41.964851 8.2093272,41.3867274 L11.5552741,35.7500221 L8.2093272,30.1133167 C7.87693434,29.5351931 8.28886154,28.8125386 8.96091614,28.8125386 L11.0494159,28.8125386 C11.3673416,28.8125386 11.6636723,28.9860039 11.8154015,29.2677968 C13.383576,32.1873493 12.8777178,31.3346311 13.8821652,33.4375276 C14.3446924,32.3318803 14.6482214,31.6598257 15.9489995,29.2677968 C16.1007287,28.9860039 16.3897906,28.8125386 16.7077868,28.8125386 L18.7890177,28.8125386 Z" id=""></path>
        </g>
    </g>
</svg>